# xmcd
#
# Track frame offsets:
#	150
#	17131
#	29345
#	51922
#	62876
#	79877
#	94374
#	113535
#	130122
#	144843
#	155377
#	167298
#	177189
#	189839
#	199405
#	209855
#	248889
#	260391
#	272944
#	284316
#
# Disc length: 3982 seconds
#
# Revision: 1
# Processed by: cddbd v1.5.1PL2 Copyright (c) Steve Scherf et al.
# Submitted via: CDRider 2.1
#
DISCID=210f8c14
DTITLE=Dinah Washington - The Ultimate Collection - 1962-64
DYEAR=2005
DGENRE=Blues
TTITLE0=The Blues Ain't Nothing (But A Woman Crying For Her Man)
TTITLE1=The Key To The Highway
TTITLE2=How Long How Long Blues
TTITLE3=Don't Come Running Back To Me
TTITLE4=If I Never Get To Heaven
TTITLE5=It's A Mean Old Man's World
TTITLE6=Me And My Gin
TTITLE7=I Wanna Be Around
TTITLE8=Make Someone Happy
TTITLE9=Take Me In Your Arms
TTITLE10=Drown In My Own Tears
TTITLE11=I Left My Heart In San Fransisco
TTITLE12=The Show Must Go On
TTITLE13=What Kind Of Fool Am I
TTITLE14=Call Me Irresponsible
TTITLE15=Nobody Knows The Way I Feel This Morning
TTITLE16=The Good Life
TTITLE17=Stars Over My Shoulder
TTITLE18=Icy Stone
TTITLE19=A Stranger On Earth
EXTD=
EXTT0=
EXTT1=
EXTT2=
EXTT3=
EXTT4=
EXTT5=
EXTT6=
EXTT7=
EXTT8=
EXTT9=
EXTT10=
EXTT11=
EXTT12=
EXTT13=
EXTT14=
EXTT15=
EXTT16=
EXTT17=
EXTT18=
EXTT19=
PLAYORDER=
